<?xml version="1.0" encoding="utf-8"?>
<!-- Generator: Adobe Illustrator 21.0.1, SVG Export Plug-In . SVG Version: 6.00 Build 0)  -->
<svg version="1.1" id="Layer_1" xmlns="http://www.w3.org/2000/svg" xmlns:xlink="http://www.w3.org/1999/xlink" x="0px" y="0px"
	 viewBox="0 0 47.3 16.4" style="enable-background:new 0 0 47.3 16.4;" xml:space="preserve">
<style type="text/css">
	.st0{fill:none;}
	.st1{fill:#FCFAFC;}
	.st2{font-family:'Prohibition-Regular';}
	.st3{font-size:12px;}
	.st4{fill:#F9F9FA;}
	.st5{fill:#F8F7F8;}
	.st6{fill:#050606;}
	.st7{fill:#020202;}
</style>
<line class="st0" x1="-41.2" y1="-46.7" x2="-21.5" y2="-40.5"/>
<rect y="0.5" class="st0" width="40.2" height="11.2"/>
<text transform="matrix(1 0 0 1 0 9.6203)"><tspan x="0" y="0" class="st1 st2 st3">Barc</tspan><tspan x="22.8" y="0" class="st4 st2 st3">hef</tspan></text>
<g>
	<path class="st5" d="M42.7,9h3.9c-0.8-1.3-2.3-2.2-3.9-2.2c-2.4,0-4.4,1.9-4.6,4.2H0v0.8h38.1c0.2,2.4,2.2,4.2,4.6,4.2
		c1.6,0,3-0.8,3.8-2h-3.8v-1H47c0.1-0.3,0.2-0.7,0.2-1h-4.6v-1h4.6c0-0.3-0.1-0.7-0.2-1h-4.4V9z"/>
	<polygon class="st6" points="50.6,9 46.6,9 42.7,9 42.7,10 47.1,10 50.6,10 	"/>
	<polygon class="st6" points="42.7,12 47.3,12 50.6,12 50.6,11 47.3,11 42.7,11 	"/>
	<polygon class="st6" points="42.7,14 46.5,14 50.6,14 50.6,13 47,13 42.7,13 	"/>
	<polygon class="st7" points="0,6.1 -21.4,6.1 -21.4,11.2 -21.4,19.6 0,19.6 0,11.8 0,11 	"/>
</g>
</svg>
