<?xml version="1.0" encoding="utf-8"?>
<!-- Generator: Adobe Illustrator 21.0.1, SVG Export Plug-In . SVG Version: 6.00 Build 0)  -->
<svg version="1.1" id="Layer_1" xmlns="http://www.w3.org/2000/svg" xmlns:xlink="http://www.w3.org/1999/xlink" x="0px" y="0px"
	 viewBox="0 0 47.3 16.4" style="enable-background:new 0 0 47.3 16.4;" xml:space="preserve">
<style type="text/css">
	.st0{fill:none;}
	.st1{enable-background:new    ;}
	.st2{fill:#FCFAFC;}
	.st3{fill:#F9F9FA;}
	.st4{fill:#F8F7F8;}
	.st5{fill:#050606;}
	.st6{fill:#020202;}
</style>
<line class="st0" x1="-41.2" y1="-46.7" x2="-21.5" y2="-40.5"/>
<rect y="0.5" class="st0" width="40.2" height="11.2"/>
<g class="st1">
	<path class="st2" d="M4.4,0.5l0.7,0.7v3L4.4,5l0.7,0.7v3.2L4.4,9.6H0.5V0.5H4.4z M3.5,4.2l0.2-0.2V2.1L3.5,2H2.1v2.3H3.5z M3.5,5.7
		H2.1v2.4h1.4L3.6,8V5.9L3.5,5.7z"/>
	<path class="st2" d="M9.4,7.7H7.5l-0.4,2H5.5l2.2-9.1h1.5l2.2,9.1H9.8L9.4,7.7z M9.1,6.2L8.4,3.1L7.8,6.2H9.1z"/>
	<path class="st2" d="M12,9.6V0.5h3.9l0.7,0.7v4.1l-0.7,0.7l0.7,3.5h-1.5l-0.7-3.5h-0.9v3.5H12z M15,4.6l0.2-0.2V2.2L15,2h-1.5v2.6
		H15z"/>
	<path class="st2" d="M17.7,8.9V1.2l0.7-0.7h3.1l0.7,0.7v1.9h-1.5v-1L20.5,2h-1.2l-0.2,0.2V8l0.2,0.2h1.2L20.7,8V7h1.5v1.9l-0.7,0.7
		h-3.1L17.7,8.9z"/>
</g>
<g class="st1">
	<path class="st3" d="M24.9,0.5v3.8h1.7V0.5h1.5v9.1h-1.5V5.7h-1.7v3.9h-1.5V0.5H24.9z"/>
	<path class="st3" d="M29.1,9.6V0.5h4.4V2h-2.8v2.3h2.1v1.5h-2.1v2.4h2.8v1.5H29.1z"/>
	<path class="st3" d="M38.8,0.5V2h-2.8v2.3H38v1.5h-2.1v3.8h-1.5V0.5H38.8z"/>
</g>
<g>
	<path class="st4" d="M42.7,9h3.9c-0.8-1.3-2.3-2.2-3.9-2.2c-2.4,0-4.4,1.9-4.6,4.2H0v0.8h38.1c0.2,2.4,2.2,4.2,4.6,4.2
		c1.6,0,3-0.8,3.8-2h-3.8v-1H47c0.1-0.3,0.2-0.7,0.2-1h-4.6v-1h4.6c0-0.3-0.1-0.7-0.2-1h-4.4V9H42.7z"/>
	<polygon class="st5" points="50.6,9 46.6,9 42.7,9 42.7,10 47.1,10 50.6,10 	"/>
	<polygon class="st5" points="42.7,12 47.3,12 50.6,12 50.6,11 47.3,11 42.7,11 	"/>
	<polygon class="st5" points="42.7,14 46.5,14 50.6,14 50.6,13 47,13 42.7,13 	"/>
	<polygon class="st6" points="0,6.1 -21.4,6.1 -21.4,11.2 -21.4,19.6 0,19.6 0,11.8 0,11 	"/>
</g>
</svg>
