<?xml version="1.0" encoding="utf-8"?>
<!-- Generator: Adobe Illustrator 21.0.1, SVG Export Plug-In . SVG Version: 6.00 Build 0)  -->
<svg version="1.1" id="Layer_1" xmlns="http://www.w3.org/2000/svg" xmlns:xlink="http://www.w3.org/1999/xlink" x="0px" y="0px"
	 viewBox="0 0 388.3 388.3" style="enable-background:new 0 0 388.3 388.3;" xml:space="preserve">
<style type="text/css">
	.st0{fill:#010A05;stroke:#00A651;stroke-miterlimit:10;}
	.st1{fill:#00A651;}
</style>
<path class="st0" d="M337.9,387.8H50.4c-27.2,0-49.9-22.3-49.9-49.9V50.4c0-27.2,22.3-49.9,49.9-49.9h287.5
	c27.2,0,49.9,22.3,49.9,49.9v287.5C387.8,365.5,365.5,387.8,337.9,387.8z"/>
<g>
	<path class="st1" d="M145.8,230.4v-26.9h180.3c4.3,0,7.4-13,8.3-26.9H145.8v-26.9h188.6c-0.9-5.2-3.9-17.8-8.3-26.9H145.8V95.7
		h171.6h13.5c-30-53.9-93.8-87.3-164.2-74.3c-58.2,10.9-106,55.2-118.2,110.4c-21.3,93.4,53,176,147.7,176
		c58.2,0,108.6-31.3,134.2-77.3H317H145.8z"/>
	<g>
		<path class="st1" d="M68.9,328.6h13.5c5.6,0,10,4.3,10,9.6c0,3-1.3,5.2-3.5,7l0,0c3.5,2.6,4.8,4.8,4.8,8.3c0,4.8-3.9,8.7-10,8.7
			H68.9C68.9,362.1,68.9,328.6,68.9,328.6z M81.1,342.1c1.7,0,3-1.3,3-3c0-1.7-1.3-3-3-3h-3.9v6.1C77.2,342.1,81.1,342.1,81.1,342.1
			z M82,354.7c1.7,0,3-1.3,3-3c0-1.7-1.3-3-3-3h-4.8v6.1C77.2,354.7,82,354.7,82,354.7z"/>
		<path class="st1" d="M108.5,327.3h1.3l16.5,34.8h-8.7l-1.7-3.5h-13.5l-1.3,3.5h-8.7L108.5,327.3z M113.2,352.9l-3.9-8.7l0,0
			l-3.9,8.7H113.2z"/>
		<path class="st1" d="M128,328.6h13.9c7.4,0,11.7,4.3,11.7,10.9c0,6.1-3,9.1-7.8,10.4l9.1,12.6h-10.4l-8.7-12.6v12.2h-8.3v-33.5
			H128z M142.8,342.9c1.7,0,3-1.7,3-3.9s-1.3-3.5-3.5-3.5h-6.5v7.4C135.8,342.9,142.8,342.9,142.8,342.9z"/>
		<path class="st1" d="M174.5,327.3c6.5,0,10.9,2.6,14.3,6.1l-5.6,5.6c-2.2-2.2-5.2-3.9-8.7-3.9c-6.1,0-10,4.3-10,10
			c0,5.6,3.9,10,10,10c3.5,0,6.5-1.3,8.7-3.9l5.6,5.2c-3.5,3.5-7.8,6.1-14.3,6.1c-10.4,0-18.2-7.8-18.2-17.8
			C156.2,335.1,163.6,327.3,174.5,327.3z"/>
		<path class="st1" d="M190.6,328.6h8.3v13h13v-13h8.3v33.5h-8.3v-13h-13v13h-8.3C190.6,362.1,190.6,328.6,190.6,328.6z"/>
		<path class="st1" d="M223.2,328.6h22.2v7.4h-13.9v6.1h13v7h-13v6.1h14.8v7h-23V328.6z"/>
		<path class="st1" d="M250.5,328.6h21.7v7.4h-13.5v7h12.2v7h-12.2v12.2h-8.3V328.6z"/>
		<path class="st1" d="M274,355.1c2.6,0,3.9,1.3,3.9,3.9c0,2.6-1.7,3.9-3.9,3.9c-2.2,0-3.9-1.3-3.9-3.9
			C270.1,356.4,271.8,355.1,274,355.1z"/>
		<path class="st1" d="M294,340.3c3.9,0,7,1.7,9.1,3.9l-3.5,3.5c-1.3-1.3-3.5-2.2-5.6-2.2c-3.9,0-6.1,3-6.1,6.5
			c0,3.5,2.6,6.5,6.1,6.5c2.2,0,3.9-0.9,5.6-2.2l3.5,3.5c-2.2,2.2-5.2,3.9-9.1,3.9c-7,0-11.7-5.2-11.7-11.3
			C282.2,345.1,287,340.3,294,340.3z"/>
		<path class="st1" d="M314,340.3c6.5,0,11.3,5.2,11.3,11.3c0,6.5-4.8,11.3-11.3,11.3c-7,0-11.3-5.2-11.3-11.3
			C302.7,345.1,307.4,340.3,314,340.3z M314,357.7c3.9,0,6.1-3,6.1-6.5c0-3.5-2.6-6.5-6.1-6.5c-3.9,0-6.1,3-6.1,6.5
			C307.9,354.7,310,357.7,314,357.7z"/>
	</g>
</g>
</svg>
