<svg width="101" height="101" viewBox="0 0 101 101" version="1.1" xmlns="http://www.w3.org/2000/svg" xmlns:xlink="http://www.w3.org/1999/xlink">
<title>bcLogoFinal3</title>
<desc>Created using Figma</desc>
<g id="Canvas" transform="translate(299 1156)">
<g id="bcLogoFinal3">
<g id="Vector">
<use xlink:href="#path0_fill" transform="translate(-299 -1156)" fill="#00A651"/>
</g>
</g>
</g>
<defs>
<path id="path0_fill" d="M 35.2106 73.8637L 35.2106 64.4637L 97.9106 64.4637C 99.5106 64.3637 100.511 59.9637 100.811 55.0637L 35.2106 55.0637L 35.2106 45.6637L 100.811 45.6637C 100.511 43.9637 99.5106 39.4637 97.9106 36.2637L 35.2106 36.2637L 35.2106 26.8637L 94.9106 26.8637L 99.6106 26.8637C 89.2106 8.16373 66.9106 -3.53627 42.4106 0.963733C 22.1106 4.66373 5.51057 20.0637 1.21057 39.3637C -5.98943 71.9637 19.9106 100.764 52.8106 100.764C 73.1106 100.764 90.7106 89.8637 99.5106 73.8637L 94.8106 73.8637L 35.2106 73.8637Z"/>
</defs>
</svg>
