<svg width="197" height="33" viewBox="0 0 197 33" version="1.1" xmlns="http://www.w3.org/2000/svg" xmlns:xlink="http://www.w3.org/1999/xlink">
<title>Group</title>
<desc>Created using Figma</desc>
<g id="Canvas" transform="translate(471 1644)">
<g id="Group">
<g id="Group">
<g id="Vector">
<use xlink:href="#path0_fill" transform="translate(-320 -1643)" fill="#00A651"/>
</g>
<g id="Vector">
<use xlink:href="#path1_fill" transform="translate(-294.941 -1643)" fill="#00A651"/>
</g>
</g>
<g id="Group">
<g id="Vector">
<use xlink:href="#path2_fill" transform="translate(-471 -1642.88)" fill="#00A651"/>
</g>
<g id="Vector">
<use xlink:href="#path3_fill" transform="translate(-447.437 -1644)" fill="#00A651"/>
</g>
<g id="Vector">
<use xlink:href="#path4_fill" transform="translate(-412.28 -1642.88)" fill="#00A651"/>
</g>
<g id="Vector">
<use xlink:href="#path5_fill" transform="translate(-383.869 -1644)" fill="#00A651"/>
</g>
<g id="Vector">
<use xlink:href="#path6_fill" transform="translate(-350.194 -1642.88)" fill="#00A651"/>
</g>
</g>
</g>
</g>
<defs>
<path id="path0_fill" d="M 0.374018 0L 20.9447 0L 20.9447 6.73223L 7.85426 6.73223L 7.85426 12.3424L 19.8226 12.3424L 19.8226 19.0746L 7.85426 19.0746L 7.85426 24.6848L 21.3187 24.6848L 21.3187 31.417L 1.14139e-05 31.417L 1.14139e-05 0L 0.374018 0Z"/>
<path id="path1_fill" d="M 0 0L 20.1967 0L 20.1967 6.73223L 7.85425 6.73223L 7.85425 13.4644L 19.4486 13.4644L 19.4486 20.1967L 7.85425 20.1967L 7.85425 31.417L 0.374007 31.417L 0.374007 0L 0 0Z"/>
<path id="path2_fill" d="M -2.85349e-06 0L 12.7164 0C 17.9526 0 22.0667 3.74013 22.0667 8.60229C 22.0667 11.5944 20.9447 13.4644 18.7006 14.9605C 22.0667 17.2046 23.1888 19.4486 23.1888 22.8147C 23.1888 27.3029 19.8227 31.043 13.8385 31.043L -2.85349e-06 31.043L -2.85349e-06 0L -2.85349e-06 0ZM 11.2204 12.3424C 13.0904 12.3424 14.2125 11.2204 14.2125 9.35031C 14.2125 7.85426 13.0904 6.3582 11.2204 6.3582L 7.48024 6.3582L 7.48024 11.9684L 11.2204 11.9684L 11.2204 12.3424ZM 11.9684 24.3108C 13.8385 24.3108 14.9605 23.1888 14.9605 21.6927C 14.9605 20.1967 13.8385 19.0746 11.9684 19.0746L 7.48024 19.0746L 7.48024 24.6848L 11.9684 24.6848L 11.9684 24.3108Z"/>
<path id="path3_fill" d="M 14.9605 -1.14139e-05L 16.4565 -1.14139e-05L 31.791 32.1651L 23.5628 32.1651L 22.0667 28.799L 9.72432 28.799L 8.22827 32.1651L -5.70697e-06 32.1651L 14.9605 -1.14139e-05ZM 19.4486 23.5628L 15.7085 15.7085L 11.9684 23.5628L 19.4486 23.5628Z"/>
<path id="path4_fill" d="M 0 0L 13.0904 0C 19.8226 0 24.3108 4.11412 24.3108 10.0983C 24.3108 15.7085 21.6927 18.7006 16.8306 19.8227L 25.0588 31.417L 15.3345 31.417L 7.48025 19.8227L 7.48025 31.417L 0 31.417L 0 0ZM 13.4644 13.4644C 15.3345 13.4644 16.4565 11.5944 16.4565 9.72431C 16.4565 7.85425 14.9605 6.3582 13.4644 6.3582L 7.48025 6.3582L 7.48025 13.4644L 13.4644 13.4644Z"/>
<path id="path5_fill" d="M 16.4706 -1.14139e-05C 22.4548 -1.14139e-05 26.569 2.24406 29.9351 5.61017L 24.6989 10.4723C 22.4548 8.22827 19.8368 7.10623 16.4706 7.10623C 10.8605 7.10623 7.49434 11.2204 7.49434 16.4565C 7.49434 21.6927 11.2345 25.8068 16.4706 25.8068C 19.4627 25.8068 22.4548 24.3108 24.6989 22.4407L 29.9351 27.3029C 26.943 30.669 22.4548 32.9131 16.8446 32.9131C 7.12033 32.9131 0.0140967 25.4328 0.0140967 16.4565C -0.359916 7.10623 6.74632 -1.14139e-05 16.4706 -1.14139e-05Z"/>
<path id="path6_fill" d="M 0 0L 7.48025 0L 7.48025 12.3424L 19.8227 12.3424L 19.8227 0L 27.3029 0L 27.3029 31.043L 19.8227 31.043L 19.8227 18.7006L 7.48025 18.7006L 7.48025 31.043L 0 31.043L 0 0Z"/>
</defs>
</svg>
